<svg width="21" height="22" viewBox="0 0 21 22" fill="none" xmlns="http://www.w3.org/2000/svg">
<path d="M6.34376 1.98H6.12499C6.2453 1.98 6.34376 1.881 6.34376 1.76V1.98H14.6562V1.76C14.6562 1.881 14.7547 1.98 14.875 1.98H14.6562V3.96001H16.625V1.76C16.625 0.789251 15.8402 0 14.875 0H6.12499C5.15975 0 4.375 0.789251 4.375 1.76V3.96001H6.34376V1.98ZM20.125 3.96001H0.875001C0.391016 3.96001 0 4.35326 0 4.84V5.72003C0 5.84102 0.0984373 5.93999 0.21875 5.93999H1.87031L2.5457 20.3225C2.58945 21.2603 3.36054 22 4.29296 22H16.707C17.6422 22 18.4105 21.263 18.4543 20.3225L19.1297 5.93999H20.7812C20.9015 5.93999 21 5.84102 21 5.72003V4.84C21 4.35326 20.609 3.96001 20.125 3.96001ZM16.4964 20.02H4.50351L3.8418 5.93999H17.1582L16.4964 20.02Z" fill="#FF4D4F"/>
</svg>
