<svg width="20" height="20" viewBox="0 0 20 20" fill="none" xmlns="http://www.w3.org/2000/svg">
<path d="M9.24016 14.5824L9.24016 7.92241C9.24016 7.50241 9.58016 7.16241 10.0002 7.16241C10.4202 7.16241 10.7402 7.50241 10.7402 7.92241L10.7402 14.5824L13.2602 12.3624C13.5602 12.0824 14.0402 12.1024 14.3002 12.4224C14.5802 12.7224 14.5602 13.2024 14.2402 13.4824L10.5002 16.8024C10.2202 17.0624 9.80016 17.0624 9.50015 16.8224C9.50015 16.8024 9.50015 16.8024 9.50015 16.8024L5.76016 13.4824C5.44015 13.2024 5.42015 12.7224 5.68016 12.4224C5.96015 12.1024 6.44016 12.0824 6.74015 12.3624L9.24016 14.5824ZM4.84016 5.92241C4.84016 6.34241 4.50016 6.66241 4.08016 6.66241C3.66016 6.66241 3.34015 6.34241 3.34015 5.92241L3.34015 4.08241C3.34015 3.68241 3.66016 3.34241 4.08016 3.34241L15.9202 3.34241C16.3202 3.34241 16.6602 3.68241 16.6602 4.08241L16.6602 5.92241C16.6602 6.34241 16.3202 6.66241 15.9202 6.66241C15.5002 6.66241 15.1602 6.34241 15.1602 5.92241L15.1602 4.84241L4.84016 4.84241L4.84016 5.92241Z" fill="#38AEE0"/>
</svg>
