<svg width="44" height="48" viewBox="0 0 44 48" fill="none" xmlns="http://www.w3.org/2000/svg">
<path d="M34 0L42 8V46C42 47.1046 41.1046 48 40 48H4C2.89543 48 2 47.1046 2 46V2C2 0.895431 2.89543 1.61064e-08 4 0H34Z" fill="#E4E7EC"/>
<path d="M42 8H34V0L42 8Z" fill="#98A2B3"/>
<rect y="20" width="44" height="20" rx="2" fill="#CC400C"/>
<path d="M7.32739 35.82V24.1836H11.691C12.585 24.1836 13.335 24.3503 13.941 24.6836C14.5509 25.0169 15.0111 25.4753 15.3217 26.0586C15.6361 26.6381 15.7933 27.2972 15.7933 28.0359C15.7933 28.7821 15.6361 29.445 15.3217 30.0245C15.0073 30.604 14.5433 31.0605 13.9297 31.3938C13.316 31.7234 12.5603 31.8881 11.6626 31.8881H8.77057V30.1552H11.3785C11.9013 30.1552 12.3293 30.0643 12.6626 29.8825C12.996 29.7006 13.2422 29.4506 13.4013 29.1325C13.5641 28.8143 13.6456 28.4487 13.6456 28.0359C13.6456 27.623 13.5641 27.2594 13.4013 26.945C13.2422 26.6306 12.9941 26.3862 12.6569 26.212C12.3236 26.034 11.8937 25.945 11.3672 25.945H9.43535V35.82H7.32739Z" fill="white"/>
<path d="M21.5674 35.82H17.6243V24.1836H21.647C22.8023 24.1836 23.7947 24.4165 24.6243 24.8825C25.4576 25.3446 26.0978 26.0094 26.5447 26.8768C26.9917 27.7442 27.2152 28.7821 27.2152 29.9904C27.2152 31.2025 26.9898 32.2442 26.539 33.1154C26.0921 33.9866 25.4462 34.6552 24.6015 35.1211C23.7606 35.587 22.7493 35.82 21.5674 35.82ZM19.7322 33.9961H21.4652C22.2758 33.9961 22.9519 33.8484 23.4936 33.5529C24.0353 33.2537 24.4424 32.8086 24.7152 32.2177C24.9879 31.623 25.1243 30.8806 25.1243 29.9904C25.1243 29.1003 24.9879 28.3616 24.7152 27.7745C24.4424 27.1836 24.039 26.7423 23.5049 26.4506C22.9746 26.1552 22.3156 26.0075 21.5277 26.0075H19.7322V33.9961Z" fill="white"/>
<path d="M29.218 35.82V24.1836H36.6726V25.9506H31.326V29.1097H36.1612V30.8768H31.326V35.82H29.218Z" fill="white"/>
</svg>
